<svg width="24" height="24" viewBox="0 0 24 24" fill="none" xmlns="http://www.w3.org/2000/svg">
  <path d="M4.5 14.8C4.5 9.9 8.4 6 13.3 6C15.8 6 18.1 7.1 19.7 8.9C18.3 8.8 17.1 9.4 16.3 10.3C15.1 11.7 15.2 13.8 16.5 15.1C17.2 15.9 18.2 16.3 19.3 16.3C17.8 19 14.9 20.8 11.5 20.8C7.6 20.8 4.5 17.7 4.5 13.8V14.8Z" fill="#FFB347"/>
  <path d="M13.3 6C8.4 6 4.5 9.9 4.5 14.8C4.5 18.2 7.3 21 10.7 21C14.3 21 17.5 18.8 18.8 15.6" stroke="#FFD8A0" stroke-width="1.5" stroke-linecap="round"/>
  <circle cx="12.9" cy="12.2" r="1" fill="#4A2300"/>
</svg>
